<mxfile host="65bd71144e">
    <diagram id="BEx1KlyscQ8PHA5aSKQq" name="Page-1">
        <mxGraphModel dx="1412" dy="2561" grid="1" gridSize="10" guides="1" tooltips="1" connect="1" arrows="1" fold="1" page="1" pageScale="1" pageWidth="2336" pageHeight="1654" math="0" shadow="0">
            <root>
                <mxCell id="0"/>
                <mxCell id="1" parent="0"/>
                <mxCell id="67" style="edgeStyle=none;html=1;exitX=1;exitY=0.5;exitDx=0;exitDy=0;fontSize=15;fontColor=#e5dcdc;" edge="1" parent="1" source="2">
                    <mxGeometry relative="1" as="geometry">
                        <mxPoint x="480" y="114" as="targetPoint"/>
                    </mxGeometry>
                </mxCell>
                <mxCell id="2" value="" style="aspect=fixed;perimeter=ellipsePerimeter;html=1;align=center;shadow=0;dashed=0;spacingTop=3;image;image=img/lib/active_directory/internet_cloud.svg;" vertex="1" parent="1">
                    <mxGeometry x="120" y="58" width="176.98" height="111.5" as="geometry"/>
                </mxCell>
                <mxCell id="3" value="&lt;font size=&quot;1&quot; color=&quot;#000000&quot;&gt;&lt;b style=&quot;font-size: 20px;&quot;&gt;Internet&amp;nbsp;&lt;/b&gt;&lt;/font&gt;" style="text;html=1;align=center;verticalAlign=middle;resizable=0;points=[];autosize=1;strokeColor=none;fillColor=none;" vertex="1" parent="1">
                    <mxGeometry x="158.49" y="93.75" width="100" height="40" as="geometry"/>
                </mxCell>
                <mxCell id="4" value="" style="outlineConnect=0;dashed=0;verticalLabelPosition=bottom;verticalAlign=top;align=center;html=1;shape=mxgraph.aws3.vpn_gateway;fillColor=#F58534;gradientColor=none;fontSize=20;fontColor=#000000;" vertex="1" parent="1">
                    <mxGeometry x="480" y="75.5" width="69" height="72" as="geometry"/>
                </mxCell>
                <mxCell id="5" value="" style="whiteSpace=wrap;html=1;fontSize=20;fontColor=#000000;fillColor=#B3B3B3;" vertex="1" parent="1">
                    <mxGeometry x="652.5" y="-180" width="740" height="660" as="geometry"/>
                </mxCell>
                <mxCell id="6" value="" style="whiteSpace=wrap;html=1;fontSize=20;fontColor=#ffffff;fillColor=#1ba1e2;strokeColor=#006EAF;" vertex="1" parent="1">
                    <mxGeometry x="690" y="-92" width="160" height="360" as="geometry"/>
                </mxCell>
                <mxCell id="7" value="" style="whiteSpace=wrap;html=1;fontSize=20;fontColor=#ffffff;fillColor=#1ba1e2;strokeColor=#006EAF;" vertex="1" parent="1">
                    <mxGeometry x="960" y="-88.5" width="160" height="360" as="geometry"/>
                </mxCell>
                <mxCell id="8" value="" style="whiteSpace=wrap;html=1;fontSize=20;fontColor=#ffffff;fillColor=#1ba1e2;strokeColor=#006EAF;" vertex="1" parent="1">
                    <mxGeometry x="1220" y="-92" width="160" height="360" as="geometry"/>
                </mxCell>
                <mxCell id="9" value="" style="whiteSpace=wrap;html=1;fontSize=20;fontColor=#ffffff;fillColor=#1ba1e2;strokeColor=#006EAF;" vertex="1" parent="1">
                    <mxGeometry x="690" y="320" width="250" height="110" as="geometry"/>
                </mxCell>
                <mxCell id="10" value="" style="whiteSpace=wrap;html=1;fontSize=20;fontColor=#ffffff;fillColor=#1ba1e2;strokeColor=#006EAF;" vertex="1" parent="1">
                    <mxGeometry x="1000" y="320" width="250" height="110" as="geometry"/>
                </mxCell>
                <mxCell id="12" value="" style="whiteSpace=wrap;html=1;fontSize=20;fontColor=#ffffff;fillColor=#6d8764;strokeColor=#3A5431;" vertex="1" parent="1">
                    <mxGeometry x="710" y="-2" width="120" height="60" as="geometry"/>
                </mxCell>
                <mxCell id="13" value="" style="whiteSpace=wrap;html=1;fontSize=20;fontColor=#ffffff;fillColor=#6d8764;strokeColor=#3A5431;" vertex="1" parent="1">
                    <mxGeometry x="710" y="96.5" width="120" height="60" as="geometry"/>
                </mxCell>
                <mxCell id="14" value="" style="whiteSpace=wrap;html=1;fontSize=20;fontColor=#ffffff;fillColor=#6d8764;strokeColor=#3A5431;" vertex="1" parent="1">
                    <mxGeometry x="710" y="195.75" width="120" height="60" as="geometry"/>
                </mxCell>
                <mxCell id="19" value="" style="whiteSpace=wrap;html=1;fontSize=20;fontColor=#ffffff;fillColor=#6d8764;strokeColor=#3A5431;" vertex="1" parent="1">
                    <mxGeometry x="980" width="120" height="60" as="geometry"/>
                </mxCell>
                <mxCell id="20" value="" style="whiteSpace=wrap;html=1;fontSize=20;fontColor=#ffffff;fillColor=#6d8764;strokeColor=#3A5431;" vertex="1" parent="1">
                    <mxGeometry x="980" y="100" width="120" height="60" as="geometry"/>
                </mxCell>
                <mxCell id="21" value="" style="whiteSpace=wrap;html=1;fontSize=20;fontColor=#ffffff;fillColor=#6d8764;strokeColor=#3A5431;" vertex="1" parent="1">
                    <mxGeometry x="980" y="195.75" width="120" height="60" as="geometry"/>
                </mxCell>
                <mxCell id="22" value="" style="whiteSpace=wrap;html=1;fontSize=20;fontColor=#ffffff;fillColor=#6d8764;strokeColor=#3A5431;" vertex="1" parent="1">
                    <mxGeometry x="1238" y="-3.5" width="120" height="60" as="geometry"/>
                </mxCell>
                <mxCell id="23" value="" style="whiteSpace=wrap;html=1;fontSize=20;fontColor=#ffffff;fillColor=#6d8764;strokeColor=#3A5431;" vertex="1" parent="1">
                    <mxGeometry x="1238" y="96.5" width="120" height="60" as="geometry"/>
                </mxCell>
                <mxCell id="24" value="" style="whiteSpace=wrap;html=1;fontSize=20;fontColor=#ffffff;fillColor=#6d8764;strokeColor=#3A5431;" vertex="1" parent="1">
                    <mxGeometry x="1240" y="192.25" width="120" height="60" as="geometry"/>
                </mxCell>
                <mxCell id="25" value="" style="whiteSpace=wrap;html=1;fontSize=20;fontColor=#ffffff;fillColor=#6d8764;strokeColor=#3A5431;" vertex="1" parent="1">
                    <mxGeometry x="1010" y="340" width="120" height="60" as="geometry"/>
                </mxCell>
                <mxCell id="28" value="" style="html=1;verticalLabelPosition=bottom;align=center;labelBackgroundColor=#ffffff;verticalAlign=top;strokeWidth=2;strokeColor=#0080F0;shadow=0;dashed=0;shape=mxgraph.ios7.icons.locked;fontSize=20;fontColor=#000000;fillColor=#000000;" vertex="1" parent="1">
                    <mxGeometry x="703" y="-88.5" width="34" height="53.5" as="geometry"/>
                </mxCell>
                <mxCell id="29" value="&lt;font style=&quot;font-size: 15px;&quot; color=&quot;#e5dcdc&quot;&gt;NSG&lt;/font&gt;" style="text;html=1;align=center;verticalAlign=middle;resizable=0;points=[];autosize=1;strokeColor=none;fillColor=none;fontSize=20;fontColor=#000000;" vertex="1" parent="1">
                    <mxGeometry x="690" y="-68.5" width="60" height="40" as="geometry"/>
                </mxCell>
                <mxCell id="30" value="" style="html=1;verticalLabelPosition=bottom;align=center;labelBackgroundColor=#ffffff;verticalAlign=top;strokeWidth=2;strokeColor=#0080F0;shadow=0;dashed=0;shape=mxgraph.ios7.icons.locked;fontSize=20;fontColor=#000000;fillColor=#000000;" vertex="1" parent="1">
                    <mxGeometry x="973" y="-88.5" width="34" height="53.5" as="geometry"/>
                </mxCell>
                <mxCell id="31" value="&lt;font style=&quot;font-size: 15px;&quot; color=&quot;#e5dcdc&quot;&gt;NSG&lt;/font&gt;" style="text;html=1;align=center;verticalAlign=middle;resizable=0;points=[];autosize=1;strokeColor=none;fillColor=none;fontSize=20;fontColor=#000000;" vertex="1" parent="1">
                    <mxGeometry x="960" y="-68.5" width="60" height="40" as="geometry"/>
                </mxCell>
                <mxCell id="32" value="" style="html=1;verticalLabelPosition=bottom;align=center;labelBackgroundColor=#ffffff;verticalAlign=top;strokeWidth=2;strokeColor=#0080F0;shadow=0;dashed=0;shape=mxgraph.ios7.icons.locked;fontSize=20;fontColor=#000000;fillColor=#000000;" vertex="1" parent="1">
                    <mxGeometry x="1233" y="-82" width="34" height="53.5" as="geometry"/>
                </mxCell>
                <mxCell id="33" value="&lt;font style=&quot;font-size: 15px;&quot; color=&quot;#e5dcdc&quot;&gt;NSG&lt;/font&gt;" style="text;html=1;align=center;verticalAlign=middle;resizable=0;points=[];autosize=1;strokeColor=none;fillColor=none;fontSize=20;fontColor=#000000;" vertex="1" parent="1">
                    <mxGeometry x="1220" y="-62" width="60" height="40" as="geometry"/>
                </mxCell>
                <mxCell id="34" value="" style="whiteSpace=wrap;html=1;fontSize=20;fontColor=#ffffff;fillColor=#6d8764;strokeColor=#3A5431;" vertex="1" parent="1">
                    <mxGeometry x="803" y="340" width="120" height="60" as="geometry"/>
                </mxCell>
                <mxCell id="37" value="" style="html=1;verticalLabelPosition=bottom;align=center;labelBackgroundColor=#ffffff;verticalAlign=top;strokeWidth=2;strokeColor=#0080F0;shadow=0;dashed=0;shape=mxgraph.ios7.icons.locked;fontSize=20;fontColor=#000000;fillColor=#000000;" vertex="1" parent="1">
                    <mxGeometry x="693.02" y="326.75" width="34" height="53.5" as="geometry"/>
                </mxCell>
                <mxCell id="36" value="&lt;font style=&quot;font-size: 15px;&quot; color=&quot;#e5dcdc&quot;&gt;NSG&lt;/font&gt;" style="text;html=1;align=center;verticalAlign=middle;resizable=0;points=[];autosize=1;strokeColor=none;fillColor=none;fontSize=20;fontColor=#000000;" vertex="1" parent="1">
                    <mxGeometry x="680" y="350.25" width="60" height="40" as="geometry"/>
                </mxCell>
                <mxCell id="40" value="" style="html=1;verticalLabelPosition=bottom;align=center;labelBackgroundColor=#ffffff;verticalAlign=top;strokeWidth=2;strokeColor=#0080F0;shadow=0;dashed=0;shape=mxgraph.ios7.icons.locked;fontSize=20;fontColor=#000000;fillColor=#000000;" vertex="1" parent="1">
                    <mxGeometry x="1213.02" y="331.75" width="34" height="53.5" as="geometry"/>
                </mxCell>
                <mxCell id="41" value="&lt;font style=&quot;font-size: 15px;&quot; color=&quot;#e5dcdc&quot;&gt;NSG&lt;/font&gt;" style="text;html=1;align=center;verticalAlign=middle;resizable=0;points=[];autosize=1;strokeColor=none;fillColor=none;fontSize=20;fontColor=#000000;" vertex="1" parent="1">
                    <mxGeometry x="1200" y="355.25" width="60" height="40" as="geometry"/>
                </mxCell>
                <mxCell id="42" value="AD DS Server&amp;nbsp;" style="text;html=1;align=center;verticalAlign=middle;resizable=0;points=[];autosize=1;strokeColor=none;fillColor=none;fontSize=15;fontColor=#e5dcdc;" vertex="1" parent="1">
                    <mxGeometry x="1010" y="370" width="120" height="30" as="geometry"/>
                </mxCell>
                <mxCell id="43" value="VM" style="text;html=1;align=center;verticalAlign=middle;resizable=0;points=[];autosize=1;strokeColor=none;fillColor=none;fontSize=15;fontColor=#e5dcdc;" vertex="1" parent="1">
                    <mxGeometry x="780" y="30" width="50" height="30" as="geometry"/>
                </mxCell>
                <mxCell id="44" value="VM" style="text;html=1;align=center;verticalAlign=middle;resizable=0;points=[];autosize=1;strokeColor=none;fillColor=none;fontSize=15;fontColor=#e5dcdc;" vertex="1" parent="1">
                    <mxGeometry x="770" y="111.5" width="50" height="30" as="geometry"/>
                </mxCell>
                <mxCell id="45" value="VM" style="text;html=1;align=center;verticalAlign=middle;resizable=0;points=[];autosize=1;strokeColor=none;fillColor=none;fontSize=15;fontColor=#e5dcdc;" vertex="1" parent="1">
                    <mxGeometry x="780" y="210.75" width="50" height="30" as="geometry"/>
                </mxCell>
                <mxCell id="48" value="" style="sketch=0;aspect=fixed;html=1;points=[];align=center;image;fontSize=12;image=img/lib/mscae/VirtualMachineWindows.svg;fontColor=#e5dcdc;fillColor=#000000;" vertex="1" parent="1">
                    <mxGeometry x="739.5699999999999" y="14" width="30.43" height="28" as="geometry"/>
                </mxCell>
                <mxCell id="49" value="" style="sketch=0;aspect=fixed;html=1;points=[];align=center;image;fontSize=12;image=img/lib/mscae/VirtualMachineWindows.svg;fontColor=#e5dcdc;fillColor=#000000;" vertex="1" parent="1">
                    <mxGeometry x="736.9999999999999" y="111.5" width="30.43" height="28" as="geometry"/>
                </mxCell>
                <mxCell id="50" value="" style="sketch=0;aspect=fixed;html=1;points=[];align=center;image;fontSize=12;image=img/lib/mscae/VirtualMachineWindows.svg;fontColor=#e5dcdc;fillColor=#000000;" vertex="1" parent="1">
                    <mxGeometry x="739.5699999999999" y="211.75" width="30.43" height="28" as="geometry"/>
                </mxCell>
                <mxCell id="51" value="" style="sketch=0;aspect=fixed;html=1;points=[];align=center;image;fontSize=12;image=img/lib/mscae/VirtualMachineWindows.svg;fontColor=#e5dcdc;fillColor=#000000;" vertex="1" parent="1">
                    <mxGeometry x="1004.79" y="10" width="30.43" height="28" as="geometry"/>
                </mxCell>
                <mxCell id="52" value="" style="sketch=0;aspect=fixed;html=1;points=[];align=center;image;fontSize=12;image=img/lib/mscae/VirtualMachineWindows.svg;fontColor=#e5dcdc;fillColor=#000000;" vertex="1" parent="1">
                    <mxGeometry x="1004.78" y="116" width="30.43" height="28" as="geometry"/>
                </mxCell>
                <mxCell id="53" value="" style="sketch=0;aspect=fixed;html=1;points=[];align=center;image;fontSize=12;image=img/lib/mscae/VirtualMachineWindows.svg;fontColor=#e5dcdc;fillColor=#000000;" vertex="1" parent="1">
                    <mxGeometry x="1004.78" y="212.75" width="30.43" height="28" as="geometry"/>
                </mxCell>
                <mxCell id="54" value="VM" style="text;html=1;align=center;verticalAlign=middle;resizable=0;points=[];autosize=1;strokeColor=none;fillColor=none;fontSize=15;fontColor=#e5dcdc;" vertex="1" parent="1">
                    <mxGeometry x="1040" y="8" width="50" height="30" as="geometry"/>
                </mxCell>
                <mxCell id="55" value="VM" style="text;html=1;align=center;verticalAlign=middle;resizable=0;points=[];autosize=1;strokeColor=none;fillColor=none;fontSize=15;fontColor=#e5dcdc;" vertex="1" parent="1">
                    <mxGeometry x="1040" y="116" width="50" height="30" as="geometry"/>
                </mxCell>
                <mxCell id="56" value="VM" style="text;html=1;align=center;verticalAlign=middle;resizable=0;points=[];autosize=1;strokeColor=none;fillColor=none;fontSize=15;fontColor=#e5dcdc;" vertex="1" parent="1">
                    <mxGeometry x="1040" y="212.75" width="50" height="30" as="geometry"/>
                </mxCell>
                <mxCell id="57" value="" style="aspect=fixed;html=1;points=[];align=center;image;fontSize=12;image=img/lib/azure2/databases/Azure_SQL_VM.svg;fontColor=#e5dcdc;fillColor=#000000;" vertex="1" parent="1">
                    <mxGeometry x="1280" y="4.5" width="44.8" height="42" as="geometry"/>
                </mxCell>
                <mxCell id="58" value="" style="aspect=fixed;html=1;points=[];align=center;image;fontSize=12;image=img/lib/azure2/databases/Azure_SQL_VM.svg;fontColor=#e5dcdc;fillColor=#000000;" vertex="1" parent="1">
                    <mxGeometry x="1285.2" y="102" width="44.8" height="42" as="geometry"/>
                </mxCell>
                <mxCell id="59" value="" style="aspect=fixed;html=1;points=[];align=center;image;fontSize=12;image=img/lib/azure2/databases/Azure_SQL_VM.svg;fontColor=#e5dcdc;fillColor=#000000;" vertex="1" parent="1">
                    <mxGeometry x="1285.2" y="201.25" width="44.8" height="42" as="geometry"/>
                </mxCell>
                <mxCell id="60" value="Web Tier Subnet&amp;nbsp;" style="text;html=1;align=center;verticalAlign=middle;resizable=0;points=[];autosize=1;strokeColor=none;fillColor=none;fontSize=15;fontColor=#e5dcdc;" vertex="1" parent="1">
                    <mxGeometry x="710" y="-118.5" width="140" height="30" as="geometry"/>
                </mxCell>
                <mxCell id="61" value="Busines Tier Subnet&amp;nbsp;" style="text;html=1;align=center;verticalAlign=middle;resizable=0;points=[];autosize=1;strokeColor=none;fillColor=none;fontSize=15;fontColor=#e5dcdc;" vertex="1" parent="1">
                    <mxGeometry x="960" y="-118.5" width="160" height="30" as="geometry"/>
                </mxCell>
                <mxCell id="62" value="Data Tier Subnet&amp;nbsp;" style="text;html=1;align=center;verticalAlign=middle;resizable=0;points=[];autosize=1;strokeColor=none;fillColor=none;fontSize=15;fontColor=#e5dcdc;" vertex="1" parent="1">
                    <mxGeometry x="1230" y="-122" width="140" height="30" as="geometry"/>
                </mxCell>
                <mxCell id="63" value="" style="verticalLabelPosition=bottom;html=1;verticalAlign=top;align=center;strokeColor=none;fillColor=#00BEF2;shape=mxgraph.azure.computer;pointerEvents=1;fontSize=15;fontColor=#e5dcdc;" vertex="1" parent="1">
                    <mxGeometry x="850" y="345" width="30" height="25" as="geometry"/>
                </mxCell>
                <mxCell id="64" value="Jumpbox&lt;br&gt;" style="text;html=1;align=center;verticalAlign=middle;resizable=0;points=[];autosize=1;strokeColor=none;fillColor=none;fontSize=15;fontColor=#e5dcdc;" vertex="1" parent="1">
                    <mxGeometry x="823" y="370" width="80" height="30" as="geometry"/>
                </mxCell>
                <mxCell id="65" value="" style="sketch=0;aspect=fixed;html=1;points=[];align=center;image;fontSize=12;image=img/lib/mscae/Azure_AD_Identity_Protection.svg;fontColor=#e5dcdc;fillColor=#000000;" vertex="1" parent="1">
                    <mxGeometry x="1045" y="345" width="25" height="25" as="geometry"/>
                </mxCell>
                <mxCell id="66" value="" style="sketch=0;aspect=fixed;html=1;points=[];align=center;image;fontSize=12;image=img/lib/mscae/Azure_AD_Domain_Services.svg;fontColor=#e5dcdc;fillColor=#000000;" vertex="1" parent="1">
                    <mxGeometry x="1010" y="345" width="25" height="25" as="geometry"/>
                </mxCell>
                <mxCell id="69" value="Actor" style="shape=umlActor;verticalLabelPosition=bottom;verticalAlign=top;html=1;outlineConnect=0;fontSize=15;fontColor=#e5dcdc;fillColor=#000000;" vertex="1" parent="1">
                    <mxGeometry x="228.49" y="310" width="30" height="60" as="geometry"/>
                </mxCell>
                <mxCell id="70" value="DevOp" style="text;html=1;align=center;verticalAlign=middle;resizable=0;points=[];autosize=1;strokeColor=none;fillColor=none;fontSize=15;fontColor=#e5dcdc;" vertex="1" parent="1">
                    <mxGeometry x="208" y="390.25" width="70" height="30" as="geometry"/>
                </mxCell>
                <mxCell id="71" value="" style="aspect=fixed;html=1;points=[];align=center;image;fontSize=12;image=img/lib/azure2/networking/Load_Balancers.svg;fontColor=#e5dcdc;fillColor=#000000;" vertex="1" parent="1">
                    <mxGeometry x="880" y="109.5" width="50.5" height="50.5" as="geometry"/>
                </mxCell>
                <mxCell id="73" value="" style="aspect=fixed;html=1;points=[];align=center;image;fontSize=12;image=img/lib/azure2/networking/Load_Balancers.svg;fontColor=#e5dcdc;fillColor=#000000;" vertex="1" parent="1">
                    <mxGeometry x="1149.5" y="111.5" width="50.5" height="50.5" as="geometry"/>
                </mxCell>
                <mxCell id="74" value="" style="endArrow=classic;html=1;fontSize=15;fontColor=#e5dcdc;entryX=0;entryY=0.5;entryDx=0;entryDy=0;" edge="1" parent="1" source="4" target="12">
                    <mxGeometry width="50" height="50" relative="1" as="geometry">
                        <mxPoint x="710" y="140" as="sourcePoint"/>
                        <mxPoint x="760" y="90" as="targetPoint"/>
                    </mxGeometry>
                </mxCell>
                <mxCell id="75" style="edgeStyle=none;html=1;exitX=1;exitY=0.5;exitDx=0;exitDy=0;exitPerimeter=0;entryX=0;entryY=0.25;entryDx=0;entryDy=0;fontSize=15;fontColor=#e5dcdc;" edge="1" parent="1" source="4" target="13">
                    <mxGeometry relative="1" as="geometry"/>
                </mxCell>
                <mxCell id="76" style="edgeStyle=none;html=1;exitX=0.855;exitY=0.855;exitDx=0;exitDy=0;exitPerimeter=0;entryX=0;entryY=0.5;entryDx=0;entryDy=0;fontSize=15;fontColor=#e5dcdc;" edge="1" parent="1" source="4" target="14">
                    <mxGeometry relative="1" as="geometry"/>
                </mxCell>
                <mxCell id="78" value="" style="endArrow=classic;html=1;fontSize=15;fontColor=#e5dcdc;entryX=-0.079;entryY=0.489;entryDx=0;entryDy=0;entryPerimeter=0;exitX=1.001;exitY=0.63;exitDx=0;exitDy=0;exitPerimeter=0;" edge="1" parent="1" source="6" target="71">
                    <mxGeometry width="50" height="50" relative="1" as="geometry">
                        <mxPoint x="850" y="97" as="sourcePoint"/>
                        <mxPoint x="760" y="90" as="targetPoint"/>
                    </mxGeometry>
                </mxCell>
                <mxCell id="79" value="" style="endArrow=classic;html=1;fontSize=15;fontColor=#e5dcdc;entryX=-0.003;entryY=0.541;entryDx=0;entryDy=0;entryPerimeter=0;" edge="1" parent="1" target="73">
                    <mxGeometry width="50" height="50" relative="1" as="geometry">
                        <mxPoint x="1120" y="140" as="sourcePoint"/>
                        <mxPoint x="1150" y="100" as="targetPoint"/>
                    </mxGeometry>
                </mxCell>
                <mxCell id="81" value="" style="endArrow=classic;html=1;fontSize=15;fontColor=#e5dcdc;entryX=0;entryY=0.5;entryDx=0;entryDy=0;exitX=0.565;exitY=0.027;exitDx=0;exitDy=0;exitPerimeter=0;" edge="1" parent="1" source="71">
                    <mxGeometry width="50" height="50" relative="1" as="geometry">
                        <mxPoint x="931" y="76" as="sourcePoint"/>
                        <mxPoint x="985.75" y="27.740000000000002" as="targetPoint"/>
                    </mxGeometry>
                </mxCell>
                <mxCell id="82" value="" style="endArrow=classic;html=1;fontSize=15;fontColor=#e5dcdc;entryX=0;entryY=0.5;entryDx=0;entryDy=0;exitX=1.06;exitY=0.472;exitDx=0;exitDy=0;exitPerimeter=0;" edge="1" parent="1" source="71" target="20">
                    <mxGeometry width="50" height="50" relative="1" as="geometry">
                        <mxPoint x="941" y="86" as="sourcePoint"/>
                        <mxPoint x="995.75" y="37.73999999999978" as="targetPoint"/>
                    </mxGeometry>
                </mxCell>
                <mxCell id="83" value="" style="endArrow=classic;html=1;fontSize=15;fontColor=#e5dcdc;entryX=0.008;entryY=0.399;entryDx=0;entryDy=0;exitX=0.713;exitY=0.918;exitDx=0;exitDy=0;exitPerimeter=0;entryPerimeter=0;" edge="1" parent="1" source="71" target="21">
                    <mxGeometry width="50" height="50" relative="1" as="geometry">
                        <mxPoint x="951" y="96" as="sourcePoint"/>
                        <mxPoint x="1005.75" y="47.73999999999978" as="targetPoint"/>
                    </mxGeometry>
                </mxCell>
                <mxCell id="84" value="" style="endArrow=classic;html=1;fontSize=15;fontColor=#e5dcdc;entryX=0;entryY=0.5;entryDx=0;entryDy=0;" edge="1" parent="1" target="22">
                    <mxGeometry width="50" height="50" relative="1" as="geometry">
                        <mxPoint x="1170" y="110" as="sourcePoint"/>
                        <mxPoint x="995.75" y="37.73999999999978" as="targetPoint"/>
                    </mxGeometry>
                </mxCell>
                <mxCell id="88" value="" style="endArrow=classic;html=1;fontSize=15;fontColor=#e5dcdc;" edge="1" parent="1">
                    <mxGeometry width="50" height="50" relative="1" as="geometry">
                        <mxPoint x="1197.02" y="139.5" as="sourcePoint"/>
                        <mxPoint x="1240" y="140" as="targetPoint"/>
                    </mxGeometry>
                </mxCell>
                <mxCell id="89" value="" style="endArrow=classic;html=1;fontSize=15;fontColor=#e5dcdc;entryX=0;entryY=0.5;entryDx=0;entryDy=0;" edge="1" parent="1" target="24">
                    <mxGeometry width="50" height="50" relative="1" as="geometry">
                        <mxPoint x="1172" y="162" as="sourcePoint"/>
                        <mxPoint x="1240" y="78.5" as="targetPoint"/>
                    </mxGeometry>
                </mxCell>
                <mxCell id="90" style="edgeStyle=none;html=1;exitX=1;exitY=0.5;exitDx=0;exitDy=0;fontSize=15;fontColor=#e5dcdc;entryX=0.063;entryY=0.242;entryDx=0;entryDy=0;entryPerimeter=0;" edge="1" parent="1" target="37">
                    <mxGeometry relative="1" as="geometry">
                        <mxPoint x="453.02" y="340.25" as="targetPoint"/>
                        <mxPoint x="269.9999999999998" y="340" as="sourcePoint"/>
                    </mxGeometry>
                </mxCell>
                <mxCell id="93" value="Vnet" style="text;html=1;align=center;verticalAlign=middle;resizable=0;points=[];autosize=1;strokeColor=none;fillColor=none;fontSize=15;fontColor=#2a2323;" vertex="1" parent="1">
                    <mxGeometry x="677.02" y="-160" width="50" height="30" as="geometry"/>
                </mxCell>
                <mxCell id="94" value="&lt;font style=&quot;font-size: 6px;&quot;&gt;ref :https://www.scholarhat.com/tutorial/azure/what-is-microsoft-azure-virtual-network-and-architecture&lt;/font&gt;" style="text;html=1;align=center;verticalAlign=middle;resizable=0;points=[];autosize=1;strokeColor=none;fillColor=none;fontSize=15;fontColor=#FFFFFF;" vertex="1" parent="1">
                    <mxGeometry x="1100" y="450" width="290" height="30" as="geometry"/>
                </mxCell>
            </root>
        </mxGraphModel>
    </diagram>
</mxfile>